<svg width="24" height="24" viewBox="0 0 24 24" fill="none" xmlns="http://www.w3.org/2000/svg">
<circle cx="12" cy="12" r="12" fill="url(#paint0_linear_439_2656)"/>
<g filter="url(#filter0_ii_439_2656)">
<circle cx="11.9994" cy="11.9999" r="9.6" fill="#148BF9"/>
</g>
<g filter="url(#filter1_d_439_2656)">
<mask id="path-3-inside-1_439_2656" fill="white">
<path d="M9.14354 12.771C9.2418 13.3999 9.53985 13.924 10.0377 14.3432C10.5421 14.7559 11.2168 14.9622 12.0619 14.9622C12.7235 14.9622 13.2967 14.8607 13.7814 14.6576C14.2727 14.448 14.6952 14.1729 15.049 13.8323L16.0905 15.2669C15.501 15.8564 14.8754 16.2593 14.2138 16.4754C13.5587 16.6916 12.8414 16.7997 12.0619 16.7997C11.3544 16.7997 10.696 16.6818 10.0868 16.446C9.47762 16.2101 8.95029 15.8826 8.50485 15.4634C8.0594 15.0376 7.70894 14.5332 7.45347 13.9502C7.20454 13.3672 7.08008 12.7186 7.08008 12.0046C7.08008 11.3102 7.19471 10.6716 7.42399 10.0886C7.65981 9.49899 7.98735 8.99131 8.40659 8.56552C8.83238 8.13318 9.34006 7.79909 9.92962 7.56327C10.5192 7.32089 11.171 7.19971 11.885 7.19971C12.6252 7.19971 13.2967 7.32744 13.8993 7.58292C14.502 7.83185 15.0162 8.19541 15.442 8.67361C15.8743 9.15181 16.2117 9.73809 16.4541 10.4325C16.6965 11.1203 16.8176 11.8998 16.8176 12.771H9.14354ZM14.5184 10.9827C14.4135 10.3932 14.1089 9.92151 13.6045 9.56777C13.1001 9.20749 12.527 9.02734 11.885 9.02734C11.243 9.02734 10.6666 9.20749 10.1556 9.56777C9.64466 9.92151 9.33678 10.3932 9.23197 10.9827H14.5184Z"/>
</mask>
<path d="M9.14354 12.771V8.39554H4.03126L4.82048 13.4465L9.14354 12.771ZM10.0377 14.3432L7.21928 17.6901L7.24298 17.71L7.26696 17.7297L10.0377 14.3432ZM13.7814 14.6576L15.472 18.6933L15.4853 18.6878L15.4985 18.6821L13.7814 14.6576ZM15.049 13.8323L18.5897 11.2616L15.6357 7.19286L12.0139 10.6805L15.049 13.8323ZM16.0905 15.2669L19.1845 18.3608L21.8261 15.7192L19.6312 12.6962L16.0905 15.2669ZM14.2138 16.4754L12.8548 12.3163L12.8426 12.3203L14.2138 16.4754ZM8.50485 15.4634L5.48145 18.6263L5.49369 18.638L5.50603 18.6496L8.50485 15.4634ZM7.45347 13.9502L3.4294 15.6683L3.43753 15.6874L3.44584 15.7063L7.45347 13.9502ZM7.42399 10.0886L3.36143 8.46353L3.35669 8.47536L3.35203 8.48722L7.42399 10.0886ZM8.40659 8.56552L5.28911 5.49527L5.28874 5.49564L8.40659 8.56552ZM9.92962 7.56327L11.5546 11.6258L11.574 11.6181L11.5933 11.6101L9.92962 7.56327ZM13.8993 7.58292L12.1916 11.6114L12.2102 11.6193L12.2289 11.627L13.8993 7.58292ZM15.442 8.67361L12.1742 11.5833L12.1852 11.5957L12.1963 11.608L15.442 8.67361ZM16.4541 10.4325L12.323 11.8744L12.3273 11.8867L16.4541 10.4325ZM16.8176 12.771V17.1466H21.1932V12.771H16.8176ZM14.5184 10.9827V15.3582H19.7403L18.8263 10.2169L14.5184 10.9827ZM13.6045 9.56777L11.0613 13.1283L11.0767 13.1393L11.0922 13.1501L13.6045 9.56777ZM10.1556 9.56777L12.6462 13.1653L12.6617 13.1546L12.6771 13.1437L10.1556 9.56777ZM9.23197 10.9827L4.92401 10.2169L4.00998 15.3582H9.23197V10.9827ZM4.82048 13.4465C5.08567 15.1437 5.93411 16.6078 7.21928 17.6901L12.8561 10.9963C12.9713 11.0933 13.1178 11.2503 13.2442 11.4726C13.3713 11.6961 13.4386 11.9162 13.4666 12.0956L4.82048 13.4465ZM7.26696 17.7297C8.75966 18.951 10.5105 19.3378 12.0619 19.3378V10.5867C11.9901 10.5867 12.0519 10.5775 12.2017 10.6233C12.3632 10.6727 12.585 10.7739 12.8084 10.9567L7.26696 17.7297ZM12.0619 19.3378C13.1591 19.3378 14.3327 19.1706 15.472 18.6933L12.0908 10.6219C12.1765 10.586 12.2267 10.5773 12.2247 10.5777C12.2215 10.5782 12.1707 10.5867 12.0619 10.5867V19.3378ZM15.4985 18.6821C16.4355 18.2824 17.3153 17.7242 18.084 16.984L12.0139 10.6805C12.0414 10.6541 12.065 10.6366 12.0792 10.6274C12.0928 10.6186 12.0902 10.6221 12.0643 10.6331L15.4985 18.6821ZM11.5082 16.4029L12.5498 17.8375L19.6312 12.6962L18.5897 11.2616L11.5082 16.4029ZM12.9966 12.1729C12.896 12.2735 12.832 12.3184 12.8101 12.3325C12.7905 12.3451 12.8061 12.3322 12.8548 12.3163L15.5727 20.6346C17.0056 20.1664 18.2038 19.3415 19.1845 18.3608L12.9966 12.1729ZM12.8426 12.3203C12.6833 12.3729 12.4353 12.4242 12.0619 12.4242V21.1752C13.2475 21.1752 14.4341 21.0103 15.5849 20.6306L12.8426 12.3203ZM12.0619 12.4242C11.8496 12.4242 11.7314 12.3907 11.6664 12.3655L8.5073 20.5264C9.66066 20.9729 10.8592 21.1752 12.0619 21.1752V12.4242ZM11.6664 12.3655C11.5473 12.3194 11.5108 12.2838 11.5037 12.2771L5.50603 18.6496C6.38978 19.4814 7.4079 20.1009 8.5073 20.5264L11.6664 12.3655ZM11.5282 12.3004C11.5144 12.2872 11.4924 12.2655 11.4611 12.194L3.44584 15.7063C3.92546 16.8008 4.6044 17.788 5.48145 18.6263L11.5282 12.3004ZM11.4775 12.232C11.4807 12.2394 11.4763 12.2321 11.4705 12.2018C11.4645 12.1703 11.4556 12.1071 11.4556 12.0046H2.70457C2.70457 13.2347 2.921 14.4776 3.4294 15.6683L11.4775 12.232ZM11.4556 12.0046C11.4556 11.799 11.4879 11.7104 11.4959 11.6899L3.35203 8.48722C2.90154 9.63275 2.70457 10.8215 2.70457 12.0046H11.4556ZM11.4865 11.7136C11.5054 11.6664 11.5193 11.6438 11.5232 11.6377C11.5268 11.6321 11.5268 11.633 11.5244 11.6354L5.28874 5.49564C4.43664 6.36105 3.79937 7.36866 3.36143 8.46353L11.4865 11.7136ZM11.5241 11.6358C11.523 11.6369 11.5208 11.639 11.5178 11.6414C11.5149 11.6438 11.5127 11.6453 11.512 11.6458C11.5113 11.6463 11.5135 11.6447 11.5196 11.6415C11.5258 11.6383 11.5371 11.6328 11.5546 11.6258L8.30459 3.50071C7.18097 3.95016 6.15821 4.6128 5.28911 5.49527L11.5241 11.6358ZM11.5933 11.6101C11.5952 11.6094 11.6732 11.5752 11.885 11.5752V2.82419C10.6687 2.82419 9.44312 3.03243 8.2659 3.5164L11.5933 11.6101ZM11.885 11.5752C12.0032 11.5752 12.081 11.5854 12.126 11.5939C12.1698 11.6023 12.1888 11.6102 12.1916 11.6114L15.6071 3.55443C14.3979 3.04184 13.1354 2.82419 11.885 2.82419V11.5752ZM12.2289 11.627C12.2349 11.6295 12.2351 11.63 12.2308 11.6276C12.2265 11.6252 12.2196 11.6211 12.211 11.615C12.2025 11.609 12.1943 11.6025 12.1872 11.5961C12.1801 11.5897 12.1757 11.5851 12.1742 11.5833L18.7098 5.7639C17.8359 4.78238 16.7721 4.03546 15.5697 3.5388L12.2289 11.627ZM12.1963 11.608C12.1855 11.596 12.2462 11.6544 12.323 11.8744L20.5852 8.99048C20.1772 7.82175 19.5632 6.70759 18.6877 5.73918L12.1963 11.608ZM12.3273 11.8867C12.3765 12.0264 12.4421 12.3014 12.4421 12.771H21.1932C21.1932 11.4983 21.0164 10.2142 20.5809 8.97826L12.3273 11.8867ZM16.8176 8.39554H9.14354V17.1466H16.8176V8.39554ZM18.8263 10.2169C18.5125 8.45172 17.5382 6.98215 16.1169 5.9854L11.0922 13.1501C10.9275 13.0346 10.7181 12.8431 10.5357 12.5606C10.3518 12.2759 10.2529 11.9879 10.2104 11.7486L18.8263 10.2169ZM16.1478 6.00727C14.8735 5.09711 13.4042 4.65183 11.885 4.65183V13.4029C11.7915 13.4029 11.6505 13.3888 11.4845 13.3367C11.3169 13.284 11.1726 13.2078 11.0613 13.1283L16.1478 6.00727ZM11.885 4.65183C10.366 4.65183 8.9038 5.09657 7.63413 5.99185L12.6771 13.1437C12.574 13.2164 12.4374 13.2884 12.2763 13.3388C12.1162 13.3888 11.9787 13.4029 11.885 13.4029V4.65183ZM7.66503 5.97026C6.23561 6.95986 5.24145 8.43126 4.92401 10.2169L13.5399 11.7486C13.4959 11.9964 13.3934 12.2906 13.2055 12.5786C13.0194 12.8635 12.808 13.0533 12.6462 13.1653L7.66503 5.97026ZM9.23197 15.3582H14.5184V6.6072H9.23197V15.3582Z" fill="white" mask="url(#path-3-inside-1_439_2656)"/>
</g>
<defs>
<filter id="filter0_ii_439_2656" x="2.39941" y="2.3999" width="19.2" height="19.2" filterUnits="userSpaceOnUse" color-interpolation-filters="sRGB">
<feFlood flood-opacity="0" result="BackgroundImageFix"/>
<feBlend mode="normal" in="SourceGraphic" in2="BackgroundImageFix" result="shape"/>
<feColorMatrix in="SourceAlpha" type="matrix" values="0 0 0 0 0 0 0 0 0 0 0 0 0 0 0 0 0 0 127 0" result="hardAlpha"/>
<feOffset dy="0.96"/>
<feComposite in2="hardAlpha" operator="arithmetic" k2="-1" k3="1"/>
<feColorMatrix type="matrix" values="0 0 0 0 0 0 0 0 0 0.41139 0 0 0 0 0.791667 0 0 0 1 0"/>
<feBlend mode="normal" in2="shape" result="effect1_innerShadow_439_2656"/>
<feColorMatrix in="SourceAlpha" type="matrix" values="0 0 0 0 0 0 0 0 0 0 0 0 0 0 0 0 0 0 127 0" result="hardAlpha"/>
<feOffset dy="-0.48"/>
<feComposite in2="hardAlpha" operator="arithmetic" k2="-1" k3="1"/>
<feColorMatrix type="matrix" values="0 0 0 0 0.208333 0 0 0 0 0.738347 0 0 0 0 1 0 0 0 1 0"/>
<feBlend mode="normal" in2="effect1_innerShadow_439_2656" result="effect2_innerShadow_439_2656"/>
</filter>
<filter id="filter1_d_439_2656" x="7.08008" y="7.19971" width="9.73755" height="10.3003" filterUnits="userSpaceOnUse" color-interpolation-filters="sRGB">
<feFlood flood-opacity="0" result="BackgroundImageFix"/>
<feColorMatrix in="SourceAlpha" type="matrix" values="0 0 0 0 0 0 0 0 0 0 0 0 0 0 0 0 0 0 127 0" result="hardAlpha"/>
<feOffset dy="0.700225"/>
<feComposite in2="hardAlpha" operator="out"/>
<feColorMatrix type="matrix" values="0 0 0 0 0 0 0 0 0 0 0 0 0 0 0 0 0 0 0.25 0"/>
<feBlend mode="normal" in2="BackgroundImageFix" result="effect1_dropShadow_439_2656"/>
<feBlend mode="normal" in="SourceGraphic" in2="effect1_dropShadow_439_2656" result="shape"/>
</filter>
<linearGradient id="paint0_linear_439_2656" x1="12" y1="0.020521" x2="12" y2="23.9795" gradientUnits="userSpaceOnUse">
<stop offset="0.5" stop-color="#35BCFF"/>
<stop offset="0.502555" stop-color="#148BF9"/>
</linearGradient>
</defs>
</svg>
