<svg width="48" height="48" viewBox="0 0 48 48" fill="none" xmlns="http://www.w3.org/2000/svg">
<path d="M24 48C37.2549 48 48 37.2549 48 24C48 10.7451 37.2549 0 24 0C10.7451 0 0 10.7451 0 24C0 37.2549 10.7451 48 24 48Z" fill="#148BF9"/>
<mask id="path-2-inside-1_363_8360" fill="white">
<path d="M16.9809 25.4318C17.2142 26.9254 17.9221 28.17 19.1045 29.1657C20.3025 30.1459 21.905 30.636 23.912 30.636C25.4833 30.636 26.8446 30.3948 27.9959 29.9125C29.1628 29.4147 30.1663 28.7612 31.0064 27.9522L33.4801 31.3594C32.0799 32.7596 30.5941 33.7165 29.0228 34.2299C27.467 34.7433 25.7634 35 23.912 35C22.2317 35 20.6681 34.72 19.2212 34.1599C17.7743 33.5998 16.5219 32.8219 15.4639 31.8262C14.406 30.8149 13.5736 29.6169 12.9669 28.2323C12.3757 26.8476 12.0801 25.3073 12.0801 23.6115C12.0801 21.9624 12.3523 20.4455 12.8969 19.0608C13.457 17.6606 14.2349 16.4548 15.2306 15.4436C16.2419 14.4167 17.4476 13.6233 18.8478 13.0632C20.248 12.4875 21.7961 12.1997 23.4919 12.1997C25.2499 12.1997 26.8446 12.5031 28.276 13.1099C29.7073 13.7011 30.9286 14.5645 31.9399 15.7003C32.9667 16.836 33.768 18.2284 34.3436 19.8776C34.9193 21.5112 35.2071 23.3626 35.2071 25.4318H16.9809ZM29.7462 21.1845C29.4973 19.7842 28.7738 18.6641 27.5759 17.8239C26.3779 16.9682 25.0166 16.5404 23.4919 16.5404C21.9672 16.5404 20.5981 16.9682 19.3846 17.8239C18.171 18.6641 17.4398 19.7842 17.1909 21.1845H29.7462Z"/>
</mask>
<path d="M16.9809 25.4318V15.0398H4.83904L6.71346 27.0361L16.9809 25.4318ZM19.1045 29.1657L12.4107 37.1147L12.467 37.1621L12.5239 37.2087L19.1045 29.1657ZM27.9959 29.9125L32.0112 39.4974L32.0427 39.4842L32.0742 39.4708L27.9959 29.9125ZM31.0064 27.9522L39.4158 21.8468L32.3999 12.1834L23.7981 20.4667L31.0064 27.9522ZM33.4801 31.3594L40.8284 38.7077L47.1022 32.4338L41.8895 25.254L33.4801 31.3594ZM29.0228 34.2299L25.7953 24.3518L25.7807 24.3566L25.7662 24.3614L29.0228 34.2299ZM15.4639 31.8262L8.28329 39.3382L8.31236 39.366L8.34165 39.3936L15.4639 31.8262ZM12.9669 28.2323L3.40961 32.3129L3.42892 32.3581L3.44866 32.4032L12.9669 28.2323ZM12.8969 19.0608L3.24817 15.2013L3.23693 15.2294L3.22585 15.2576L12.8969 19.0608ZM15.2306 15.4436L7.82646 8.15163L7.8256 8.1525L15.2306 15.4436ZM18.8478 13.0632L22.7073 22.7119L22.7533 22.6935L22.7992 22.6746L18.8478 13.0632ZM28.276 13.1099L24.2201 22.6776L24.2643 22.6964L24.3087 22.7148L28.276 13.1099ZM31.9399 15.7003L24.1787 22.6109L24.2049 22.6404L24.2314 22.6696L31.9399 15.7003ZM34.3436 19.8776L24.5322 23.3023L24.5372 23.3169L24.5424 23.3314L34.3436 19.8776ZM35.2071 25.4318V35.8238H45.5991V25.4318H35.2071ZM29.7462 21.1845V31.5764H42.1486L39.9778 19.3655L29.7462 21.1845ZM27.5759 17.8239L21.5357 26.2802L21.5722 26.3064L21.6091 26.3322L27.5759 17.8239ZM19.3846 17.8239L25.2998 26.3681L25.3366 26.3427L25.3732 26.3169L19.3846 17.8239ZM17.1909 21.1845L6.95934 19.3655L4.78851 31.5764H17.1909V21.1845ZM6.71346 27.0361C7.34329 31.067 9.35836 34.5443 12.4107 37.1147L25.7984 21.2168C26.072 21.4472 26.4198 21.8201 26.72 22.3479C27.022 22.8789 27.1817 23.4016 27.2483 23.8275L6.71346 27.0361ZM12.5239 37.2087C16.0691 40.1093 20.2274 41.0279 23.912 41.0279V20.244C23.7416 20.244 23.8883 20.222 24.244 20.3308C24.6276 20.4481 25.1544 20.6885 25.6851 21.1228L12.5239 37.2087ZM23.912 41.0279C26.5179 41.0279 29.3053 40.631 32.0112 39.4974L23.9806 20.3276C24.1841 20.2424 24.3035 20.2216 24.2988 20.2224C24.291 20.2238 24.1706 20.244 23.912 20.244V41.0279ZM32.0742 39.4708C34.2995 38.5214 36.3891 37.1958 38.2147 35.4378L23.7981 20.4667C23.8633 20.4039 23.9195 20.3625 23.9531 20.3406C23.9854 20.3196 23.9793 20.3279 23.9177 20.3542L32.0742 39.4708ZM22.5971 34.0576L25.0708 37.4648L41.8895 25.254L39.4158 21.8468L22.5971 34.0576ZM26.1319 24.0112C25.893 24.2501 25.7411 24.3567 25.6892 24.3902C25.6425 24.4202 25.6796 24.3896 25.7953 24.3518L32.2503 44.108C35.6535 42.996 38.4993 41.0368 40.8284 38.7077L26.1319 24.0112ZM25.7662 24.3614C25.3879 24.4862 24.7988 24.608 23.912 24.608V45.392C26.7279 45.392 29.546 45.0004 32.2794 44.0984L25.7662 24.3614ZM23.912 24.608C23.4077 24.608 23.1272 24.5285 22.9727 24.4686L15.4698 43.8511C18.209 44.9115 21.0557 45.392 23.912 45.392V24.608ZM22.9727 24.4686C22.69 24.3592 22.6032 24.2747 22.5862 24.2587L8.34165 39.3936C10.4406 41.3691 12.8587 42.8403 15.4698 43.8511L22.9727 24.4686ZM22.6446 24.3141C22.6117 24.2827 22.5595 24.2312 22.4851 24.0613L3.44866 32.4032C4.58776 35.0027 6.20028 37.3471 8.28329 39.3382L22.6446 24.3141ZM22.5242 24.1516C22.5317 24.1692 22.5213 24.1519 22.5075 24.0799C22.4931 24.0051 22.4721 23.8548 22.4721 23.6115H1.6881C1.6881 26.533 2.20215 29.4849 3.40961 32.3129L22.5242 24.1516ZM22.4721 23.6115C22.4721 23.1231 22.5488 22.9127 22.5679 22.864L3.22585 15.2576C2.15593 17.9782 1.6881 20.8016 1.6881 23.6115H22.4721ZM22.5456 22.9203C22.5904 22.8082 22.6234 22.7546 22.6327 22.7401C22.6412 22.7269 22.6411 22.729 22.6356 22.7346L7.8256 8.1525C5.80184 10.2079 4.2883 12.601 3.24817 15.2013L22.5456 22.9203ZM22.6347 22.7355C22.6321 22.7382 22.6269 22.7431 22.6199 22.7488C22.6129 22.7545 22.6077 22.7581 22.606 22.7593C22.6043 22.7604 22.6096 22.7568 22.6242 22.7492C22.6388 22.7416 22.6657 22.7285 22.7073 22.7119L14.9883 3.41447C12.3197 4.48193 9.89061 6.05572 7.82646 8.15163L22.6347 22.7355ZM22.7992 22.6746C22.8037 22.6728 22.9889 22.5917 23.4919 22.5917V1.80773C20.6032 1.80773 17.6924 2.3023 14.8964 3.45173L22.7992 22.6746ZM23.4919 22.5917C23.7726 22.5917 23.9575 22.6158 24.0643 22.6361C24.1682 22.6559 24.2135 22.6749 24.2201 22.6776L32.3319 3.54206C29.4601 2.32466 26.4617 1.80773 23.4919 1.80773V22.5917ZM24.3087 22.7148C24.323 22.7206 24.3234 22.7217 24.3133 22.7161C24.303 22.7105 24.2865 22.7006 24.2662 22.6863C24.2459 22.6719 24.2266 22.6564 24.2096 22.6412C24.1927 22.6261 24.1824 22.615 24.1787 22.6109L39.7011 8.78961C37.6254 6.45847 35.099 4.68452 32.2432 3.50495L24.3087 22.7148ZM24.2314 22.6696C24.2056 22.6411 24.3498 22.7798 24.5322 23.3023L44.1551 16.4528C43.1862 13.6771 41.7279 11.0309 39.6484 8.73091L24.2314 22.6696ZM24.5424 23.3314C24.6593 23.6632 24.8151 24.3163 24.8151 25.4318H45.5991C45.5991 22.4089 45.1792 19.3591 44.1449 16.4238L24.5424 23.3314ZM35.2071 15.0398H16.9809V35.8238H35.2071V15.0398ZM39.9778 19.3655C39.2325 15.1733 36.9183 11.683 33.5427 9.31569L21.6091 26.3322C21.2177 26.0577 20.7205 25.6029 20.2873 24.9321C19.8506 24.2559 19.6157 23.5718 19.5147 23.0034L39.9778 19.3655ZM33.6161 9.36764C30.5897 7.20597 27.1001 6.14842 23.4919 6.14842V26.9324C23.2698 26.9324 22.935 26.8991 22.5406 26.7752C22.1427 26.6501 21.8 26.469 21.5357 26.2802L33.6161 9.36764ZM23.4919 6.14842C19.8843 6.14842 16.4115 7.2047 13.396 9.33101L25.3732 26.3169C25.1283 26.4895 24.8039 26.6606 24.4212 26.7802C24.0411 26.899 23.7145 26.9324 23.4919 26.9324V6.14842ZM13.4694 9.27973C10.0745 11.6301 7.71327 15.1247 6.95934 19.3655L27.4224 23.0034C27.3178 23.5921 27.0744 24.2908 26.628 24.9747C26.1862 25.6514 25.684 26.1022 25.2998 26.3681L13.4694 9.27973ZM17.1909 31.5764H29.7462V10.7925H17.1909V31.5764Z" fill="white" mask="url(#path-2-inside-1_363_8360)"/>
</svg>
