<svg width="24" height="24" viewBox="0 0 24 24" fill="none" xmlns="http://www.w3.org/2000/svg">
<g clip-path="url(#clip0_367_3650)">
<path fill-rule="evenodd" clip-rule="evenodd" d="M7.72223 18.9323C5.75789 19.6865 3.48283 18.922 2.39814 17.0414L2.24915 16.7831C1.04843 14.7013 1.76188 12.0405 3.84316 10.8401L6.38789 9.37235L13.8357 2.17743C14.3343 1.6959 15.0267 1.47121 15.7124 1.56721C16.3986 1.66398 17.002 2.07149 17.3483 2.67195L22.1736 11.038C22.5199 11.6384 22.5705 12.3647 22.3107 13.0071C22.0504 13.6487 21.5092 14.1355 20.8427 14.326L12.6405 16.6683L13.8078 18.6922C14.1058 19.2088 14.1863 19.8235 14.0311 20.3994C13.8769 20.9758 13.4996 21.4676 12.9828 21.7657L12.2109 22.2109C11.6941 22.5089 11.0794 22.5893 10.5033 22.4341C9.92712 22.2801 9.4354 21.9026 9.13742 21.3859L7.72223 18.9323ZM6.56806 11.0009L4.59295 12.14C3.22958 12.9264 2.76177 14.6697 3.54848 16.0337L3.69747 16.292C4.40682 17.5219 5.89311 18.0233 7.17841 17.5338C7.31835 17.4805 7.45652 17.4151 7.59134 17.3373L9.56589 16.1985L6.56806 11.0009ZM10.9474 15.5915L20.4305 12.8831C20.653 12.8198 20.8335 12.6578 20.9202 12.4433C21.0067 12.2299 20.9898 11.9878 20.8742 11.7874L16.049 3.42136C15.9334 3.22095 15.7323 3.08512 15.5038 3.05239C15.2752 3.02076 15.0445 3.09591 14.8778 3.25602L7.7852 10.1089L10.7408 15.2334L10.9474 15.5915ZM9.04849 18.2283L10.4373 20.6362C10.5366 20.8084 10.7 20.9346 10.8922 20.9862C11.0844 21.0378 11.2887 21.0104 11.4611 20.9109L12.233 20.4657C12.4055 20.3662 12.5315 20.2032 12.5831 20.0109C12.6347 19.8187 12.6072 19.6142 12.5079 19.4419L11.1529 17.0927L10.8849 17.1691L9.04849 18.2283Z" fill="white"/>
</g>
<defs>
<clipPath id="clip0_367_3650">
<rect width="24" height="24" fill="white"/>
</clipPath>
</defs>
</svg>
