<svg width="24" height="26" viewBox="0 0 24 26" fill="none" xmlns="http://www.w3.org/2000/svg">
<g filter="url(#filter0_d_367_3649)">
<mask id="path-1-inside-1_367_3649" fill="white">
<path d="M5.08577 13.7316C5.32795 15.2815 6.06256 16.5732 7.28961 17.6065C8.5328 18.6236 10.1958 19.1322 12.2785 19.1322C13.9092 19.1322 15.3219 18.8819 16.5167 18.3814C17.7275 17.8648 18.7689 17.1867 19.6408 16.3471L22.2079 19.883C20.7548 21.336 19.2129 22.329 17.5822 22.8618C15.9677 23.3946 14.1998 23.661 12.2785 23.661C10.5348 23.661 8.91221 23.3703 7.4107 22.7891C5.90918 22.2079 4.60949 21.4006 3.5116 20.3673C2.41372 19.3179 1.54995 18.0747 0.920283 16.6377C0.306761 15.2008 0 13.6024 0 11.8426C0 10.1312 0.282543 8.55701 0.847629 7.12008C1.42886 5.667 2.23613 4.41574 3.26942 3.3663C4.31887 2.30071 5.57013 1.4773 7.02321 0.896065C8.47629 0.298688 10.0827 0 11.8426 0C13.667 0 15.3219 0.314833 16.8073 0.944501C18.2926 1.55802 19.56 2.45409 20.6095 3.63269C21.6751 4.8113 22.5066 6.25631 23.1039 7.96771C23.7013 9.66297 24 11.5843 24 13.7316H5.08577ZM18.333 9.32392C18.0747 7.87084 17.3239 6.70838 16.0807 5.83653C14.8375 4.94854 13.4248 4.50454 11.8426 4.50454C10.2603 4.50454 8.83956 4.94854 7.58022 5.83653C6.32089 6.70838 5.56206 7.87084 5.30373 9.32392H18.333Z"/>
</mask>
<path d="M5.08577 13.7316V2.94734H-7.51436L-5.56919 15.3964L5.08577 13.7316ZM7.28961 17.6065L0.343086 25.8555L0.401504 25.9046L0.460613 25.953L7.28961 17.6065ZM16.5167 18.3814L20.6835 28.3282L20.7162 28.3145L20.7488 28.3006L16.5167 18.3814ZM19.6408 16.3471L28.3675 10.0112L21.0869 -0.0168709L12.1604 8.57902L19.6408 16.3471ZM22.2079 19.883L29.8335 27.5086L36.3442 20.9979L30.9347 13.5471L22.2079 19.883ZM17.5822 22.8618L14.2329 12.6108L14.2178 12.6157L14.2027 12.6207L17.5822 22.8618ZM3.5116 20.3673L-3.94011 28.1629L-3.90994 28.1918L-3.87954 28.2204L3.5116 20.3673ZM0.920283 16.6377L-8.99776 20.8724L-8.97772 20.9193L-8.95724 20.9661L0.920283 16.6377ZM0.847629 7.12008L-9.16529 3.11491L-9.17696 3.14408L-9.18846 3.17331L0.847629 7.12008ZM3.26942 3.3663L-4.41418 -4.20089L-4.41507 -4.19998L3.26942 3.3663ZM7.02321 0.896065L11.0284 10.909L11.0761 10.8899L11.1237 10.8703L7.02321 0.896065ZM16.8073 0.944501L12.5983 10.8735L12.6442 10.8929L12.6903 10.912L16.8073 0.944501ZM20.6095 3.63269L12.5553 10.8042L12.5825 10.8348L12.61 10.8651L20.6095 3.63269ZM23.1039 7.96771L12.9221 11.5217L12.9274 11.5368L12.9327 11.5519L23.1039 7.96771ZM24 13.7316V24.5158H34.7842V13.7316H24ZM18.333 9.32392V20.1082H31.2035L28.9508 7.43631L18.333 9.32392ZM16.0807 5.83653L9.81251 14.612L9.85048 14.6392L9.88867 14.6659L16.0807 5.83653ZM7.58022 5.83653L13.7187 14.7033L13.7569 14.6768L13.7949 14.65L7.58022 5.83653ZM5.30373 9.32392L-5.31403 7.43631L-7.56681 20.1082H5.30373V9.32392ZM-5.56919 15.3964C-4.91559 19.5795 -2.82446 23.188 0.343086 25.8555L14.2361 9.35747C14.52 9.59655 14.881 9.98349 15.1925 10.5312C15.5059 11.0823 15.6717 11.6247 15.7407 12.0667L-5.56919 15.3964ZM0.460613 25.953C4.13963 28.9631 8.45484 29.9164 12.2785 29.9164V8.34795C12.1017 8.34795 12.254 8.32511 12.6231 8.43801C13.0212 8.55975 13.5678 8.80927 14.1186 9.25991L0.460613 25.953ZM12.2785 29.9164C14.9829 29.9164 17.8755 29.5045 20.6835 28.3282L12.3498 8.43472C12.5609 8.34626 12.6848 8.32472 12.68 8.32558C12.6719 8.32701 12.5469 8.34795 12.2785 8.34795V29.9164ZM20.7488 28.3006C23.0581 27.3152 25.2266 25.9396 27.1212 24.1152L12.1604 8.57902C12.228 8.51387 12.2863 8.47089 12.3212 8.44819C12.3547 8.42637 12.3484 8.43504 12.2845 8.46232L20.7488 28.3006ZM10.914 22.683L13.4811 26.2188L30.9347 13.5471L28.3675 10.0112L10.914 22.683ZM14.5823 12.2573C14.3344 12.5052 14.1767 12.6159 14.1228 12.6506C14.0743 12.6818 14.1129 12.65 14.2329 12.6108L20.9316 33.1127C24.4632 31.9588 27.4165 29.9256 29.8335 27.5086L14.5823 12.2573ZM14.2027 12.6207C13.8102 12.7503 13.1988 12.8767 12.2785 12.8767V34.4452C15.2008 34.4452 18.1253 34.0388 20.9618 33.1028L14.2027 12.6207ZM12.2785 12.8767C11.7552 12.8767 11.4641 12.7941 11.3037 12.7321L3.51765 32.8462C6.36031 33.9465 9.31439 34.4452 12.2785 34.4452V12.8767ZM11.3037 12.7321C11.0104 12.6185 10.9203 12.5308 10.9027 12.5142L-3.87954 28.2204C-1.70136 30.2705 0.807972 31.7972 3.51765 32.8462L11.3037 12.7321ZM10.9633 12.5717C10.9292 12.5391 10.875 12.4856 10.7978 12.3094L-8.95724 20.9661C-7.77513 23.6637 -6.10175 26.0967 -3.94011 28.1629L10.9633 12.5717ZM10.8383 12.4031C10.8461 12.4214 10.8354 12.4034 10.821 12.3286C10.8061 12.251 10.7842 12.0951 10.7842 11.8426H-10.7842C-10.7842 14.8743 -10.2508 17.9377 -8.99776 20.8724L10.8383 12.4031ZM10.7842 11.8426C10.7842 11.3357 10.8639 11.1174 10.8837 11.0669L-9.18846 3.17331C-10.2988 5.99667 -10.7842 8.92662 -10.7842 11.8426H10.7842ZM10.8606 11.1253C10.9071 11.009 10.9413 10.9533 10.951 10.9383C10.9598 10.9246 10.9597 10.9267 10.9539 10.9326L-4.41507 -4.19998C-6.51522 -2.06701 -8.0859 0.416424 -9.16529 3.11491L10.8606 11.1253ZM10.953 10.9335C10.9503 10.9363 10.9449 10.9414 10.9377 10.9473C10.9304 10.9533 10.925 10.957 10.9232 10.9582C10.9215 10.9593 10.927 10.9556 10.9421 10.9477C10.9573 10.9398 10.9852 10.9263 11.0284 10.909L3.01804 -9.11686C0.248657 -8.00911 -2.27212 -6.3759 -4.41418 -4.20089L10.953 10.9335ZM11.1237 10.8703C11.1284 10.8684 11.3206 10.7842 11.8426 10.7842V-10.7842C8.84487 -10.7842 5.82414 -10.271 2.92268 -9.07819L11.1237 10.8703ZM11.8426 10.7842C12.1338 10.7842 12.3258 10.8093 12.4366 10.8304C12.5445 10.8509 12.5914 10.8706 12.5983 10.8735L21.0163 -8.98446C18.0361 -10.2478 14.9245 -10.7842 11.8426 -10.7842V10.7842ZM12.6903 10.912C12.705 10.9181 12.7055 10.9191 12.695 10.9134C12.6844 10.9075 12.6672 10.8973 12.6461 10.8824C12.6251 10.8675 12.605 10.8514 12.5874 10.8357C12.5698 10.8199 12.5591 10.8085 12.5553 10.8042L28.6636 -3.53881C26.5096 -5.95795 23.8879 -7.79887 20.9243 -9.02296L12.6903 10.912ZM12.61 10.8651C12.5832 10.8355 12.7329 10.9795 12.9221 11.5217L33.2857 4.41369C32.2803 1.53314 30.7669 -1.21292 28.609 -3.59973L12.61 10.8651ZM12.9327 11.5519C13.0541 11.8963 13.2158 12.574 13.2158 13.7316H34.7842C34.7842 10.5946 34.3486 7.42968 33.2752 4.38356L12.9327 11.5519ZM24 2.94734H5.08577V24.5158H24V2.94734ZM28.9508 7.43631C28.1773 3.08582 25.7758 -0.536197 22.2728 -2.99288L9.88867 14.6659C9.48257 14.3811 8.96661 13.9092 8.51699 13.213C8.06383 12.5113 7.82009 11.8014 7.71523 11.2115L28.9508 7.43631ZM22.3489 -2.93897C19.2084 -5.18224 15.587 -6.27971 11.8426 -6.27971V15.2888C11.6121 15.2888 11.2647 15.2543 10.8554 15.1256C10.4425 14.9959 10.0868 14.8079 9.81251 14.612L22.3489 -2.93897ZM11.8426 -6.27971C8.09878 -6.27971 4.49488 -5.18356 1.36556 -2.97698L13.7949 14.65C13.5408 14.8292 13.2041 15.0068 12.807 15.1309C12.4125 15.2542 12.0736 15.2888 11.8426 15.2888V-6.27971ZM1.44172 -3.03019C-2.08133 -0.591157 -4.53165 3.03539 -5.31403 7.43631L15.9215 11.2115C15.8129 11.8224 15.5603 12.5475 15.0971 13.2572C14.6386 13.9595 14.1174 14.4272 13.7187 14.7033L1.44172 -3.03019ZM5.30373 20.1082H18.333V-1.46033H5.30373V20.1082Z" fill="white" mask="url(#path-1-inside-1_367_3649)"/>
</g>
<defs>
<filter id="filter0_d_367_3649" x="0" y="0" width="24" height="25.3867" filterUnits="userSpaceOnUse" color-interpolation-filters="sRGB">
<feFlood flood-opacity="0" result="BackgroundImageFix"/>
<feColorMatrix in="SourceAlpha" type="matrix" values="0 0 0 0 0 0 0 0 0 0 0 0 0 0 0 0 0 0 127 0" result="hardAlpha"/>
<feOffset dy="1.72583"/>
<feComposite in2="hardAlpha" operator="out"/>
<feColorMatrix type="matrix" values="0 0 0 0 0 0 0 0 0 0 0 0 0 0 0 0 0 0 0.25 0"/>
<feBlend mode="normal" in2="BackgroundImageFix" result="effect1_dropShadow_367_3649"/>
<feBlend mode="normal" in="SourceGraphic" in2="effect1_dropShadow_367_3649" result="shape"/>
</filter>
</defs>
</svg>
