<svg width="25" height="24" viewBox="0 0 25 24" fill="none" xmlns="http://www.w3.org/2000/svg">
<path d="M9.32632 11.62C9.29632 11.62 9.27632 11.62 9.24632 11.62C9.19632 11.61 9.12632 11.61 9.06632 11.62C6.16632 11.53 3.97632 9.25 3.97632 6.44C3.97632 3.58 6.30632 1.25 9.16632 1.25C12.0263 1.25 14.3563 3.58 14.3563 6.44C14.3463 9.25 12.1463 11.53 9.35632 11.62C9.34632 11.62 9.33632 11.62 9.32632 11.62ZM9.16632 2.75C7.13632 2.75 5.47632 4.41 5.47632 6.44C5.47632 8.44 7.03632 10.05 9.02632 10.12C9.08632 10.11 9.21632 10.11 9.34632 10.12C11.3063 10.03 12.8463 8.42 12.8563 6.44C12.8563 4.41 11.1963 2.75 9.16632 2.75Z" fill="white"/>
<path d="M16.7064 11.75C16.6764 11.75 16.6464 11.75 16.6164 11.74C16.2064 11.78 15.7864 11.49 15.7464 11.08C15.7064 10.67 15.9564 10.3 16.3664 10.25C16.4864 10.24 16.6164 10.24 16.7264 10.24C18.1864 10.16 19.3264 8.96 19.3264 7.49C19.3264 5.97 18.0964 4.74 16.5764 4.74C16.1664 4.75 15.8264 4.41 15.8264 4C15.8264 3.59 16.1664 3.25 16.5764 3.25C18.9164 3.25 20.8264 5.16 20.8264 7.5C20.8264 9.8 19.0264 11.66 16.7364 11.75C16.7264 11.75 16.7164 11.75 16.7064 11.75Z" fill="white"/>
<path d="M9.33636 22.55C7.37636 22.55 5.40636 22.05 3.91636 21.05C2.52636 20.13 1.76636 18.87 1.76636 17.5C1.76636 16.13 2.52636 14.86 3.91636 13.93C6.91636 11.94 11.7764 11.94 14.7564 13.93C16.1364 14.85 16.9064 16.11 16.9064 17.48C16.9064 18.85 16.1464 20.12 14.7564 21.05C13.2564 22.05 11.2964 22.55 9.33636 22.55ZM4.74636 15.19C3.78636 15.83 3.26636 16.65 3.26636 17.51C3.26636 18.36 3.79636 19.18 4.74636 19.81C7.23636 21.48 11.4364 21.48 13.9264 19.81C14.8864 19.17 15.4064 18.35 15.4064 17.49C15.4064 16.64 14.8764 15.82 13.9264 15.19C11.4364 13.53 7.23636 13.53 4.74636 15.19Z" fill="white"/>
<path d="M18.5064 20.75C18.1564 20.75 17.8464 20.51 17.7764 20.15C17.6964 19.74 17.9564 19.35 18.3564 19.26C18.9864 19.13 19.5664 18.88 20.0164 18.53C20.5864 18.1 20.8964 17.56 20.8964 16.99C20.8964 16.42 20.5864 15.88 20.0264 15.46C19.5864 15.12 19.0364 14.88 18.3864 14.73C17.9864 14.64 17.7264 14.24 17.8164 13.83C17.9064 13.43 18.3064 13.17 18.7164 13.26C19.5764 13.45 20.3264 13.79 20.9364 14.26C21.8664 14.96 22.3964 15.95 22.3964 16.99C22.3964 18.03 21.8564 19.02 20.9264 19.73C20.3064 20.21 19.5264 20.56 18.6664 20.73C18.6064 20.75 18.5564 20.75 18.5064 20.75Z" fill="white"/>
</svg>
