<svg width="24" height="24" viewBox="0 0 24 24" fill="none" xmlns="http://www.w3.org/2000/svg">
<g clip-path="url(#clip0_367_3671)">
<path d="M12.2733 1.78125C14.5364 1.78125 17.6634 2.07891 18.6666 2.27953C18.6698 2.28 18.6731 2.28094 18.6764 2.28141C20.0437 2.54672 21.4463 3.88594 21.7448 5.20969C22.0645 6.75422 22.215 8.29359 22.2183 10.0537C22.215 11.8134 22.0645 13.3533 21.7448 14.8978C21.4463 16.2211 20.0437 17.5608 18.6764 17.8261C18.6731 17.8266 18.6698 17.8275 18.6666 17.828C18.0666 17.948 16.8056 18.0905 15.4533 18.1912C14.8931 18.233 14.385 18.5367 14.0831 19.0106C13.9214 19.2642 13.7489 19.5305 13.5698 19.8019C12.975 20.7028 12.4477 21.4519 12 22.0331C11.5523 21.4519 11.025 20.7028 10.4302 19.8019C10.2511 19.5305 10.0781 19.2642 9.91687 19.0106C9.615 18.5367 9.10734 18.233 8.54672 18.1912C7.19484 18.0905 5.93344 17.948 5.33344 17.828C5.33016 17.8275 5.32687 17.8266 5.32359 17.8261C3.95625 17.5608 2.55375 16.2216 2.25516 14.8978C1.93547 13.3533 1.785 11.8139 1.78172 10.0537C1.785 8.29359 1.93547 6.75422 2.25516 5.20969C2.55375 3.88641 3.95625 2.54719 5.32359 2.28188C5.32687 2.28141 5.33016 2.28047 5.33344 2.28C6.33703 2.07937 9.46359 1.78172 11.7267 1.78172C11.813 1.78172 11.8973 1.78172 11.9803 1.78313H12C12 1.78313 12.0131 1.78313 12.0197 1.78313C12.1027 1.78219 12.187 1.78172 12.2733 1.78172M11.7267 0C9.43547 0 6.18094 0.293437 4.98422 0.5325C2.94047 0.929062 0.964687 2.79609 0.513281 4.83422C0.256406 6.07172 0.00375 7.75547 0 10.0537C0.00375 12.352 0.256406 14.0353 0.513281 15.2728C0.964687 17.3109 2.94047 19.178 4.98422 19.5745C5.65641 19.7091 6.97875 19.8605 8.41406 19.9673C8.57672 20.2228 8.75297 20.4947 8.94375 20.783C9.70547 21.9366 10.2886 22.7405 10.7302 23.3006C11.0977 23.7666 11.5491 23.9995 12 23.9995C12.4509 23.9995 12.9023 23.7666 13.2698 23.3006C13.7114 22.7405 14.2941 21.9366 15.0563 20.783C15.247 20.4942 15.4228 20.2228 15.5859 19.9673C17.0217 19.8605 18.3436 19.7091 19.0162 19.5745C21.06 19.178 23.0358 17.3109 23.4872 15.2728C23.7441 14.0353 23.9967 12.352 24.0005 10.0537C23.9967 7.75547 23.7441 6.07219 23.4872 4.83469C23.0358 2.79656 21.06 0.929531 19.0162 0.532969C17.8191 0.293437 14.5645 0 12.2733 0C12.1805 0 12.0895 0.00046875 12 0.00140625C11.9109 0.00046875 11.8195 0 11.7267 0Z" fill="white"/>
<path d="M13.3257 17.0453C13.275 17.3307 13.0163 17.5895 12.7308 17.6401C12.5579 17.6687 12.3221 17.6959 12 17.6964C11.6785 17.6964 11.4427 17.6692 11.2693 17.6401C10.9838 17.5895 10.725 17.3307 10.6744 17.0453C10.6458 16.8723 10.6186 16.6365 10.6182 16.3145C10.6182 15.9929 10.6454 15.7571 10.6744 15.5837C10.725 15.2982 10.9838 15.0395 11.2693 14.9889C11.4422 14.9603 11.678 14.9331 12 14.9326C12.3216 14.9326 12.5574 14.9598 12.7308 14.9889C13.0163 15.0395 13.275 15.2982 13.3257 15.5837C13.3543 15.7567 13.3814 15.9925 13.3819 16.3145C13.3819 16.6361 13.3547 16.8718 13.3257 17.0453Z" fill="white"/>
<path d="M11.9512 13.5187C11.503 13.5187 11.1173 13.1812 11.0671 12.7256C11.0605 12.6637 11.0057 12.1036 11.1777 11.4323C11.4229 10.4765 11.9994 9.74857 12.8451 9.32857C14.3929 8.55889 14.5129 7.68889 14.5129 7.44045C14.5129 7.25482 14.4398 6.84982 14.1665 6.50998C13.7999 6.05482 13.1652 5.8242 12.2798 5.8242C11.3943 5.8242 10.8069 6.1242 10.348 6.74154C10.0049 7.20279 9.89569 7.66685 9.89476 7.67107C9.79304 8.15248 9.32054 8.45998 8.83913 8.35779C8.35773 8.25607 8.05023 7.78311 8.15241 7.30217C8.17023 7.21732 8.3446 6.45092 8.91882 5.67842C9.47382 4.93217 10.5074 4.04248 12.2802 4.04248C15.456 4.04248 16.2951 6.26482 16.2951 7.43951C16.2951 8.08967 16.0363 9.73076 13.6391 10.9223C12.7223 11.3779 12.8371 12.5179 12.8385 12.5292C12.8924 13.0181 12.5399 13.4583 12.051 13.5122C12.0177 13.5159 11.9849 13.5178 11.9521 13.5178L11.9512 13.5187Z" fill="white"/>
</g>
<defs>
<clipPath id="clip0_367_3671">
<rect width="24" height="24" fill="white"/>
</clipPath>
</defs>
</svg>
