<svg width="24" height="24" viewBox="0 0 24 24" fill="none" xmlns="http://www.w3.org/2000/svg">
<path d="M21.7101 20.2901L18.8801 17.4701C20.4143 15.5748 21.1627 13.163 20.971 10.7321C20.7793 8.30119 19.6621 6.03653 17.8499 4.40507C16.0376 2.77362 13.6684 1.89977 11.2308 1.96373C8.79317 2.02768 6.47304 3.02456 4.7488 4.7488C3.02456 6.47304 2.02768 8.79317 1.96373 11.2308C1.89977 13.6684 2.77362 16.0376 4.40507 17.8499C6.03653 19.6621 8.30119 20.7793 10.7321 20.971C13.163 21.1627 15.5748 20.4143 17.4701 18.8801L20.2901 21.7101C20.3831 21.8038 20.4937 21.8782 20.6155 21.929C20.7374 21.9798 20.8681 22.0059 21.0001 22.0059C21.1321 22.0059 21.2628 21.9798 21.3847 21.929C21.5065 21.8782 21.6171 21.8038 21.7101 21.7101C21.8038 21.6171 21.8782 21.5065 21.929 21.3847C21.9798 21.2628 22.0059 21.1321 22.0059 21.0001C22.0059 20.8681 21.9798 20.7374 21.929 20.6155C21.8782 20.4937 21.8038 20.3831 21.7101 20.2901ZM4.00009 11.5001C4.00009 10.0167 4.43996 8.56668 5.26407 7.33331C6.08818 6.09995 7.25952 5.13865 8.62997 4.57099C10.0004 4.00334 11.5084 3.85481 12.9633 4.1442C14.4181 4.43359 15.7545 5.1479 16.8034 6.19679C17.8523 7.24568 18.5666 8.58206 18.856 10.0369C19.1454 11.4918 18.9968 12.9998 18.4292 14.3702C17.8615 15.7407 16.9002 16.912 15.6669 17.7361C14.4335 18.5602 12.9835 19.0001 11.5001 19.0001C9.51097 19.0001 7.60331 18.2099 6.19679 16.8034C4.79027 15.3969 4.00009 13.4892 4.00009 11.5001Z" fill="white"/>
</svg>
