<svg width="18" height="18" viewBox="0 0 18 18" fill="none" xmlns="http://www.w3.org/2000/svg">
<path opacity="0.4" d="M9 16.5C13.1421 16.5 16.5 13.1421 16.5 9C16.5 4.85786 13.1421 1.5 9 1.5C4.85786 1.5 1.5 4.85786 1.5 9C1.5 13.1421 4.85786 16.5 9 16.5Z" fill="white"/>
<path d="M7.93532 11.685C7.78532 11.685 7.64282 11.625 7.53782 11.52L5.41532 9.39745C5.19782 9.17995 5.19782 8.81995 5.41532 8.60245C5.63282 8.38495 5.99282 8.38495 6.21032 8.60245L7.93532 10.3275L11.7903 6.47245C12.0078 6.25495 12.3678 6.25495 12.5853 6.47245C12.8028 6.68995 12.8028 7.04995 12.5853 7.26745L8.33282 11.52C8.22782 11.625 8.08532 11.685 7.93532 11.685Z" fill="white"/>
</svg>
