<svg width="24" height="24" viewBox="0 0 24 24" fill="none" xmlns="http://www.w3.org/2000/svg">
<path d="M15.7398 2.76082L15.2573 2H12.3372V8.85231L12.3273 15.5455C12.3322 15.5952 12.3372 15.6499 12.3372 15.6997C12.3372 17.3754 10.9742 18.7429 9.29279 18.7429C7.6114 18.7429 6.24838 17.3804 6.24838 15.6997C6.24838 14.0239 7.6114 12.6564 9.29279 12.6564C9.64101 12.6564 9.97928 12.721 10.2927 12.8304V9.48881C9.96933 9.43411 9.63604 9.40428 9.29279 9.40428C5.82554 9.40925 3 12.2337 3 15.7046C3 19.1755 5.82554 22 9.29777 22C12.77 22 15.5955 19.1755 15.5955 15.7046V7.74341C16.8541 9.00149 18.4808 10.2297 20.2816 10.6226V7.20636C18.3266 6.34112 16.3815 3.78518 15.7398 2.76082Z" fill="white"/>
</svg>
